<svg xmlns="http://www.w3.org/2000/svg" width="1366" height="768" viewBox="0 0 1366 768">
  <metadata><?xpacket begin="﻿" id="W5M0MpCehiHzreSzNTczkc9d"?>
<x:xmpmeta xmlns:x="adobe:ns:meta/" x:xmptk="Adobe XMP Core 5.6-c138 79.159824, 2016/09/14-01:09:01        ">
   <rdf:RDF xmlns:rdf="http://www.w3.org/1999/02/22-rdf-syntax-ns#">
      <rdf:Description rdf:about=""/>
   </rdf:RDF>
</x:xmpmeta>
                                                                                                    
                                                                                                    
                                                                                                    
                                                                                                    
                                                                                                    
                                                                                                    
                                                                                                    
                                                                                                    
                                                                                                    
                                                                                                    
                                                                                                    
                                                                                                    
                                                                                                    
                                                                                                    
                                                                                                    
                                                                                                    
                                                                                                    
                                                                                                    
                                                                                                    
                                                                                                    
                           
<?xpacket end="w"?></metadata>
<defs>
    <style>
      .cls-1 {
        fill: #888;
      }

      .cls-1, .cls-2, .cls-5, .cls-6, .cls-8 {
        fill-rule: evenodd;
      }

      .cls-2 {
        fill: #f1792b;
      }

      .cls-3, .cls-4 {
        fill: none;
        stroke-width: 2px;
      }

      .cls-3 {
        stroke: #888;
      }

      .cls-4 {
        stroke: #f1792b;
      }

      .cls-5 {
        fill: #b5b5b5;
      }

      .cls-6 {
        fill: #4282c3;
      }

      .cls-7 {
        fill: #fff;
        stroke: #676767;
        stroke-width: 1px;
      }

      .cls-8 {
        fill: #676767;
      }
    </style>
  </defs>
  <path id="Forma_1" data-name="Forma 1" class="cls-1" d="M52.5,27.006A19.494,19.494,0,1,0,71.994,46.5,19.516,19.516,0,0,0,52.5,27.006Zm0,37.642A18.149,18.149,0,1,1,70.648,46.5,18.169,18.169,0,0,1,52.5,64.648ZM63.081,36.524l-12.5,7.423a0.288,0.288,0,0,0-.139.215,0.073,0.073,0,0,0,0,.03L42.829,57.008l0.132,0.132L55.74,49.548a0.233,0.233,0,0,0,.066.008l0.034,0a0.284,0.284,0,0,0,.214-0.136l7.423-12.5a0.267,0.267,0,0,0,0-.27A0.3,0.3,0,0,0,63.081,36.524ZM62.4,37.6L55.746,48.8,51.2,44.253Z"/>
  <path id="Forma_1_copy" data-name="Forma 1 copy" class="cls-2" d="M106.5,27.006a19.494,19.494,0,1,0,19.5,19.494A19.516,19.516,0,0,0,106.5,27.006Zm0,37.642A18.149,18.149,0,1,1,124.648,46.5,18.169,18.169,0,0,1,106.5,64.648Zm10.582-28.125-12.5,7.423a0.289,0.289,0,0,0-.139.215,0.076,0.076,0,0,0,0,.03L96.829,57.008l0.132,0.132,12.779-7.592a0.234,0.234,0,0,0,.066.008l0.034,0a0.286,0.286,0,0,0,.214-0.136l7.423-12.5a0.266,0.266,0,0,0,0-.27A0.3,0.3,0,0,0,117.081,36.524ZM116.4,37.6L109.746,48.8,105.2,44.253Z"/>
  <path id="Shape_1_copy_2" data-name="Shape 1 copy 2" class="cls-1" d="M178.653,63.06l-9.232-9.236a16.195,16.195,0,1,0-1.6,1.6l9.232,9.235a1.145,1.145,0,0,0,.8.337,1.109,1.109,0,0,0,.8-0.337A1.139,1.139,0,0,0,178.653,63.06ZM143.266,43.2A13.924,13.924,0,1,1,157.19,57.136,13.942,13.942,0,0,1,143.266,43.2Z"/>
  <path id="Shape_1_copy_3" data-name="Shape 1 copy 3" class="cls-2" d="M231.653,63.06l-9.232-9.236a16.195,16.195,0,1,0-1.6,1.6l9.232,9.235a1.145,1.145,0,0,0,.8.337,1.109,1.109,0,0,0,.8-0.337A1.139,1.139,0,0,0,231.653,63.06ZM196.266,43.2A13.924,13.924,0,1,1,210.19,57.136,13.942,13.942,0,0,1,196.266,43.2Z"/>
  <path class="cls-1" d="M285.182,42.963l-13.649-9.75a1.949,1.949,0,0,0-2.267,0l-8.513,6.081a3.9,3.9,0,0,1,1.356,1.428L270.4,34.8l13.65,9.75h-3.9V62.1H260.817l-0.155,1.95h19.487a1.95,1.95,0,0,0,1.95-1.95V46.5h1.95A1.95,1.95,0,0,0,285.182,42.963ZM262.568,52.976l-1.95-10.725a1.95,1.95,0,0,0-1.918-1.6h-7.8a1.949,1.949,0,0,0-1.918,1.6l-1.95,10.725a1.949,1.949,0,0,0,1.918,2.3H250.2l0.71,8.93A1.951,1.951,0,0,0,252.85,66h3.9a1.951,1.951,0,0,0,1.944-1.8l0.71-8.93h1.246A1.951,1.951,0,0,0,262.568,52.976Zm-4.966.349L256.75,64.05h-3.9L252,53.325H248.95L250.9,42.6h2.925v5.932a0.975,0.975,0,1,0,1.95,0V42.6H258.7l1.95,10.725H257.6ZM254.8,27a5.85,5.85,0,1,0,5.85,5.85A5.857,5.857,0,0,0,254.8,27Zm0,9.75a3.9,3.9,0,1,1,3.9-3.9A3.9,3.9,0,0,1,254.8,36.75Z"/>
  <path id="Shape_1_copy" data-name="Shape 1 copy" class="cls-2" d="M339.182,42.963l-13.649-9.75a1.949,1.949,0,0,0-2.267,0l-8.513,6.081a3.9,3.9,0,0,1,1.356,1.428L324.4,34.8l13.65,9.75h-3.9V62.1H314.817l-0.154,1.95h19.486a1.95,1.95,0,0,0,1.95-1.95V46.5h1.95A1.95,1.95,0,0,0,339.182,42.963ZM316.568,52.976l-1.95-10.725a1.95,1.95,0,0,0-1.918-1.6h-7.8a1.949,1.949,0,0,0-1.918,1.6l-1.95,10.725a1.949,1.949,0,0,0,1.918,2.3H304.2l0.71,8.93A1.951,1.951,0,0,0,306.85,66h3.9a1.951,1.951,0,0,0,1.944-1.8l0.71-8.93h1.245A1.951,1.951,0,0,0,316.568,52.976Zm-4.966.349L310.75,64.05h-3.9L306,53.325H302.95L304.9,42.6h2.925v5.932a0.975,0.975,0,1,0,1.95,0V42.6H312.7l1.949,10.725H311.6ZM308.8,27a5.85,5.85,0,1,0,5.849,5.85A5.857,5.857,0,0,0,308.8,27Zm0,9.75a3.9,3.9,0,1,1,3.9-3.9A3.9,3.9,0,0,1,308.8,36.75Z"/>
  <path class="cls-1" d="M355,46a19,19,0,1,0,19-19A19.025,19.025,0,0,0,355,46Zm7.941,13.015a52.584,52.584,0,0,1,5.923-3.46,1.244,1.244,0,0,0,.7-1.122V52.048a0.956,0.956,0,0,0-.133-0.483,8.164,8.164,0,0,1-.99-2.915,0.947,0.947,0,0,0-.685-0.771,5.154,5.154,0,0,1-.694-1.7,4.348,4.348,0,0,1-.242-1.582,0.953,0.953,0,0,0,.9-1.27,5.432,5.432,0,0,1-.133-3.25,6.318,6.318,0,0,1,1.7-2.961,8.159,8.159,0,0,1,1.6-1.325c0.008-.008.024-0.016,0.032-0.023a5.985,5.985,0,0,1,1.5-.772h0.007a4.807,4.807,0,0,1,1.349-.249,5.6,5.6,0,0,1,3.429.725,4.118,4.118,0,0,1,1.551,1.4,0.962,0.962,0,0,0,.779.514,1.44,1.44,0,0,1,.81.577c0.452,0.6,1.092,2.159.312,5.923a0.953,0.953,0,0,0,.507,1.044,3.832,3.832,0,0,1-.226,1.652,6.061,6.061,0,0,1-.616,1.582,1,1,0,0,0-.5.062,0.961,0.961,0,0,0-.569.709,8.838,8.838,0,0,1-.724,2.338,0.959,0.959,0,0,0-.094.413v2.759a1.231,1.231,0,0,0,.7,1.122,52.224,52.224,0,0,1,5.923,3.46A17.026,17.026,0,0,1,362.941,59.015ZM374,28.909a17.081,17.081,0,0,1,12.477,28.757,54.485,54.485,0,0,0-6.126-3.639V51.892a9.83,9.83,0,0,0,.624-1.847c0.764-.288,1.3-1.177,1.808-2.961q0.69-2.443-.125-3.429c0.569-3.125.312-5.432-.771-6.858a3.322,3.322,0,0,0-1.668-1.216,6.123,6.123,0,0,0-2.042-1.777,7.461,7.461,0,0,0-4.5-.974,6.8,6.8,0,0,0-1.84.351h-0.007a7.878,7.878,0,0,0-1.957,1,10.532,10.532,0,0,0-1.948,1.605,8.056,8.056,0,0,0-2.174,3.819,7.279,7.279,0,0,0-.086,3.4,1.564,1.564,0,0,0-.288.273c-0.561.678-.608,1.761-0.14,3.421a5.309,5.309,0,0,0,1.418,2.751,10.019,10.019,0,0,0,1,2.852v1.73a55.239,55.239,0,0,0-6.125,3.639A17.075,17.075,0,0,1,374,28.909Z"/>
  <path id="Shape_1_copy_4" data-name="Shape 1 copy 4" class="cls-2" d="M408,46a19,19,0,1,0,19-19A19.025,19.025,0,0,0,408,46Zm7.941,13.015a52.584,52.584,0,0,1,5.923-3.46,1.244,1.244,0,0,0,.7-1.122V52.048a0.956,0.956,0,0,0-.133-0.483,8.164,8.164,0,0,1-.99-2.915,0.947,0.947,0,0,0-.685-0.771,5.154,5.154,0,0,1-.694-1.7,4.348,4.348,0,0,1-.242-1.582,0.955,0.955,0,0,0,.9-1.27,5.432,5.432,0,0,1-.133-3.25,6.318,6.318,0,0,1,1.7-2.961,8.159,8.159,0,0,1,1.6-1.325c0.008-.008.024-0.016,0.032-0.023a5.985,5.985,0,0,1,1.5-.772h0.007a4.807,4.807,0,0,1,1.349-.249,5.6,5.6,0,0,1,3.429.725,4.118,4.118,0,0,1,1.551,1.4,0.963,0.963,0,0,0,.779.514,1.44,1.44,0,0,1,.81.577c0.452,0.6,1.091,2.159.312,5.923a0.952,0.952,0,0,0,.507,1.044,3.832,3.832,0,0,1-.226,1.652,6.061,6.061,0,0,1-.616,1.582,1,1,0,0,0-.5.062,0.961,0.961,0,0,0-.569.709,8.838,8.838,0,0,1-.724,2.338,0.959,0.959,0,0,0-.094.413v2.759a1.23,1.23,0,0,0,.7,1.122,52.338,52.338,0,0,1,5.922,3.46A17.026,17.026,0,0,1,415.941,59.015ZM427,28.909a17.081,17.081,0,0,1,12.477,28.757,54.485,54.485,0,0,0-6.126-3.639V51.892a9.83,9.83,0,0,0,.624-1.847c0.764-.288,1.3-1.177,1.808-2.961q0.69-2.443-.125-3.429c0.569-3.125.312-5.432-.771-6.858a3.322,3.322,0,0,0-1.668-1.216,6.113,6.113,0,0,0-2.042-1.777,7.461,7.461,0,0,0-4.5-.974,6.8,6.8,0,0,0-1.84.351h-0.007a7.878,7.878,0,0,0-1.957,1,10.565,10.565,0,0,0-1.948,1.605,8.056,8.056,0,0,0-2.174,3.819,7.279,7.279,0,0,0-.086,3.4,1.564,1.564,0,0,0-.288.273c-0.561.678-.608,1.761-0.14,3.421a5.309,5.309,0,0,0,1.418,2.751,10.019,10.019,0,0,0,1,2.852v1.73a55.239,55.239,0,0,0-6.125,3.639A17.075,17.075,0,0,1,427,28.909Z"/>
  <circle class="cls-3" cx="465.5" cy="31.5" r="4.5"/>
  <circle id="Ellipse_1_copy" data-name="Ellipse 1 copy" class="cls-3" cx="479.5" cy="31.5" r="4.5"/>
  <circle id="Ellipse_1_copy_2" data-name="Ellipse 1 copy 2" class="cls-3" cx="492.5" cy="31.5" r="4.5"/>
  <circle class="cls-4" cx="516.5" cy="31.5" r="4.5"/>
  <circle id="Ellipse_1_copy-2" data-name="Ellipse 1 copy" class="cls-4" cx="530.5" cy="31.5" r="4.5"/>
  <circle id="Ellipse_1_copy_2-2" data-name="Ellipse 1 copy 2" class="cls-4" cx="543.5" cy="31.5" r="4.5"/>
  <path class="cls-1" d="M604.617,66.856l-10.2-10.208a17.908,17.908,0,1,0-1.769,1.77l10.2,10.207a1.265,1.265,0,0,0,.885.373,1.226,1.226,0,0,0,.884-0.373A1.259,1.259,0,0,0,604.617,66.856ZM565.5,44.905a15.39,15.39,0,1,1,15.39,15.4A15.41,15.41,0,0,1,565.5,44.905Z"/>
  <path id="Forma_1-2" data-name="Forma 1" class="cls-1" d="M660.845,27.614A1.2,1.2,0,0,0,659.8,27H621.2a1.2,1.2,0,0,0-1.024,1.828L634.153,51.7V62.939a1.2,1.2,0,0,0,.779,1.125l10.292,3.86a1.2,1.2,0,0,0,1.623-1.125V51.7l13.975-22.87A1.2,1.2,0,0,0,660.845,27.614Zm-16.224,23.12a1.2,1.2,0,0,0-.176.626V65.066l-7.89-2.959V51.36a1.2,1.2,0,0,0-.176-0.626L623.344,29.4h34.312Z"/>
  <path id="Forma_1-3" data-name="Forma 1" class="cls-5" d="M686.236,27h-9.712a0.523,0.523,0,0,0-.523.524v9.712a0.523,0.523,0,0,0,.523.524h9.712a0.523,0.523,0,0,0,.523-0.524V27.524A0.523,0.523,0,0,0,686.236,27Zm14.239,0h-9.711a0.524,0.524,0,0,0-.524.524v9.712a0.524,0.524,0,0,0,.524.524h9.711A0.523,0.523,0,0,0,701,37.236V27.524A0.523,0.523,0,0,0,700.475,27ZM686.236,41.24h-9.712a0.523,0.523,0,0,0-.523.523v9.711a0.523,0.523,0,0,0,.523.524h9.712a0.523,0.523,0,0,0,.523-0.524V41.763A0.523,0.523,0,0,0,686.236,41.24Zm14.239,0h-9.711a0.524,0.524,0,0,0-.524.523v9.711a0.524,0.524,0,0,0,.524.524h9.711A0.523,0.523,0,0,0,701,51.475V41.763A0.523,0.523,0,0,0,700.475,41.24Z"/>
  <path id="Forma_1_copy_2" data-name="Forma 1 copy 2" class="cls-6" d="M726.236,27h-9.712a0.523,0.523,0,0,0-.523.524v9.712a0.523,0.523,0,0,0,.523.524h9.712a0.523,0.523,0,0,0,.523-0.524V27.524A0.523,0.523,0,0,0,726.236,27Zm14.239,0h-9.711a0.524,0.524,0,0,0-.524.524v9.712a0.524,0.524,0,0,0,.524.524h9.711A0.523,0.523,0,0,0,741,37.236V27.524A0.523,0.523,0,0,0,740.475,27ZM726.236,41.24h-9.712a0.523,0.523,0,0,0-.523.523v9.711a0.523,0.523,0,0,0,.523.524h9.712a0.523,0.523,0,0,0,.523-0.524V41.763A0.523,0.523,0,0,0,726.236,41.24Zm14.239,0h-9.711a0.524,0.524,0,0,0-.524.523v9.711a0.524,0.524,0,0,0,.524.524h9.711A0.523,0.523,0,0,0,741,51.475V41.763A0.523,0.523,0,0,0,740.475,41.24Z"/>
  <path id="Forma_1-4" data-name="Forma 1" class="cls-5" d="M780.305,27h-0.277l-7.361,2.917L764.333,27l-7.778,2.639a0.748,0.748,0,0,0-.555.695V51.305a0.656,0.656,0,0,0,.694.695h0.278l7.361-2.917L772.667,52l7.777-2.639A0.922,0.922,0,0,0,781,48.666V27.694A0.656,0.656,0,0,0,780.305,27Zm-7.638,22.222-8.334-2.917V29.777l8.334,2.917V49.222Z"/>
  <circle class="cls-7" cx="881" cy="72" r="45"/>
  <path class="cls-8" d="M904.233,90.4h-2.3V49.767A0.724,0.724,0,0,0,901.167,49H862.833a0.724,0.724,0,0,0-.766.767V90.4h-2.3a0.725,0.725,0,0,0-.767.767v3.067a0.725,0.725,0,0,0,.767.767h44.466A0.725,0.725,0,0,0,905,94.233V91.167A0.725,0.725,0,0,0,904.233,90.4ZM863.6,50.533h36.8V90.4H888.9V81.967a0.724,0.724,0,0,0-.767-0.767H875.867a0.724,0.724,0,0,0-.767.767V90.4H863.6V50.533ZM876.633,90.4V82.733h4.6V90.4h-4.6Zm6.134-7.667h4.6V90.4h-4.6V82.733Zm20.7,10.733H860.533V91.933h42.934v1.533h0Zm-29.9-40.633h-6.134a0.724,0.724,0,0,0-.766.767v4.6a0.724,0.724,0,0,0,.766.767h6.134a0.724,0.724,0,0,0,.766-0.767V53.6A0.724,0.724,0,0,0,873.567,52.833Zm-0.767,4.6h-4.6V54.367h4.6v3.067Zm0.767,3.833h-6.134a0.724,0.724,0,0,0-.766.767v4.6a0.724,0.724,0,0,0,.766.767h6.134a0.724,0.724,0,0,0,.766-0.767v-4.6A0.724,0.724,0,0,0,873.567,61.267Zm-0.767,4.6h-4.6V62.8h4.6v3.067Zm6.133,1.533h6.134a0.724,0.724,0,0,0,.766-0.767v-4.6a0.724,0.724,0,0,0-.766-0.767h-6.134a0.724,0.724,0,0,0-.766.767v4.6A0.724,0.724,0,0,0,878.933,67.4Zm0.767-4.6h4.6v3.067h-4.6V62.8h0Zm10.733,4.6h6.134a0.724,0.724,0,0,0,.766-0.767v-4.6a0.724,0.724,0,0,0-.766-0.767h-6.134a0.724,0.724,0,0,0-.766.767v4.6A0.724,0.724,0,0,0,890.433,67.4Zm0.767-4.6h4.6v3.067h-4.6V62.8ZM878.933,75.833h6.134a0.724,0.724,0,0,0,.766-0.767v-4.6a0.724,0.724,0,0,0-.766-0.767h-6.134a0.724,0.724,0,0,0-.766.767v4.6A0.724,0.724,0,0,0,878.933,75.833Zm0.767-4.6h4.6V74.3h-4.6V71.233h0Zm10.733,4.6h6.134a0.724,0.724,0,0,0,.766-0.767v-4.6a0.724,0.724,0,0,0-.766-0.767h-6.134a0.724,0.724,0,0,0-.766.767v4.6A0.724,0.724,0,0,0,890.433,75.833Zm0.767-4.6h4.6V74.3h-4.6V71.233ZM873.567,69.7h-6.134a0.724,0.724,0,0,0-.766.767v4.6a0.724,0.724,0,0,0,.766.767h6.134a0.724,0.724,0,0,0,.766-0.767v-4.6A0.724,0.724,0,0,0,873.567,69.7ZM872.8,74.3h-4.6V71.233h4.6V74.3Zm6.133-15.333h6.134a0.724,0.724,0,0,0,.766-0.767V53.6a0.724,0.724,0,0,0-.766-0.767h-6.134a0.724,0.724,0,0,0-.766.767v4.6A0.724,0.724,0,0,0,878.933,58.967Zm0.767-4.6h4.6v3.067h-4.6V54.367h0Zm10.733,4.6h6.134a0.724,0.724,0,0,0,.766-0.767V53.6a0.724,0.724,0,0,0-.766-0.767h-6.134a0.724,0.724,0,0,0-.766.767v4.6A0.724,0.724,0,0,0,890.433,58.967Zm0.767-4.6h4.6v3.067h-4.6V54.367Zm-13.8,25.3h9.2a0.767,0.767,0,1,0,0-1.533h-9.2A0.767,0.767,0,1,0,877.4,79.667Z"/>
  <path id="Forma_1-5" data-name="Forma 1" class="cls-8" d="M941.2,28.079a0.659,0.659,0,0,1,0-.938,0.678,0.678,0,0,1,.95,0l8.348,8.246,8.349-8.246a0.677,0.677,0,0,1,.949,0,0.658,0.658,0,0,1,0,.938l-8.823,8.715a0.678,0.678,0,0,1-.95,0Z"/>
  <path id="Forma_1-6" data-name="Forma 1" class="cls-8" d="M978.039,76.483a1.775,1.775,0,0,1-2.519-2.5L997.672,52,975.52,30.016a1.76,1.76,0,0,1,0-2.5,1.792,1.792,0,0,1,2.519,0L1001.45,50.75a1.751,1.751,0,0,1,0,2.5Z"/>
  <path id="Forma_1_copy_3" data-name="Forma 1 copy 3" class="cls-6" d="M820.305,27h-0.277l-7.361,2.917L804.333,27l-7.778,2.639a0.748,0.748,0,0,0-.555.695V51.305a0.656,0.656,0,0,0,.694.695h0.278l7.361-2.917L812.667,52l7.777-2.639A0.922,0.922,0,0,0,821,48.666V27.694A0.656,0.656,0,0,0,820.305,27Zm-7.638,22.222-8.334-2.917V29.777l8.334,2.917V49.222Z"/>
</svg>
