<svg id="Layer_2" data-name="Layer 2" xmlns="http://www.w3.org/2000/svg" xmlns:xlink="http://www.w3.org/1999/xlink" viewBox="0 0 496 130"><defs><style>.cls-1{fill:#231f20;}.cls-2{fill:url(#linear-gradient);}.cls-3{fill:#2bb0d4;}.cls-4{fill:url(#linear-gradient-3);}</style><linearGradient id="linear-gradient" x1="61.63" y1="100.09" x2="82.53" y2="79.2" gradientUnits="userSpaceOnUse"><stop offset="0" stop-color="#39b54a"/><stop offset="0.13" stop-color="#3fb64c"/><stop offset="0.31" stop-color="#50ba52"/><stop offset="0.51" stop-color="#6cc05b"/><stop offset="0.68" stop-color="#89c765"/><stop offset="1" stop-color="#96cb64"/></linearGradient><linearGradient id="linear-gradient-3" x1="92.95" y1="82.78" x2="92.95" y2="17.44" gradientUnits="userSpaceOnUse"><stop offset="0" stop-color="#ed1c24"/><stop offset="0.15" stop-color="#ee2623"/><stop offset="0.42" stop-color="#f04322"/><stop offset="0.76" stop-color="#f4701f"/><stop offset="1" stop-color="#f7941d"/></linearGradient></defs><title>logo</title><path class="cls-1" d="M114.43,103.34q-4.86,0-6.95-1.91A7,7,0,0,1,105.4,96q0-1.74.26-5.95t.69-9.59q.43-5.38.87-11.37t.87-11.29q.43-5.29.69-9.29T109,43q0-1.3,1.39-1.3h4.77q4.86,0,6.73,1.87a7.48,7.48,0,0,1,1.87,5.51,6.45,6.45,0,0,1,0,.78,6.19,6.19,0,0,0,0,.78l-2.87,40.54h15.63a1.64,1.64,0,0,1,1,.3,1,1,0,0,1,.43.91l-.35,5.12a7.48,7.48,0,0,1-1.43,4.21q-1.26,1.61-5.17,1.61Z"/><path class="cls-1" d="M153.32,103.34q-4.86,0-6.95-1.91A7,7,0,0,1,144.29,96q0-1.74.26-5.95t.69-9.59q.43-5.38.87-11.37T147,57.76q.43-5.29.69-9.29t.26-5.47q0-1.3,1.39-1.3h4.77q5.29,0,7.12,2.26T163,50.64q0,.44-.13,2.78t-.39,5.9q-.26,3.56-.56,7.94t-.61,9q-.31,4.6-.61,9t-.56,7.94q-.26,3.56-.43,5.95t-.26,2.91a1.91,1.91,0,0,1-.35,1,1.35,1.35,0,0,1-1,.3Z"/><path class="cls-1" d="M210.45,103.34a10.55,10.55,0,0,1-5.3-1,6.37,6.37,0,0,1-2.52-2.6q-4.52-9.29-8.46-17.8t-8-17.19q.09,9.38.26,18.67t.35,18.67q0,1.3-1.39,1.3h-4.77q-4.95,0-7-2a7.63,7.63,0,0,1-2-5.77q0-1,.13-3.52t.39-5.86q.26-3.39.56-7.42t.65-8.2q.52-6.6.87-10.94t.56-7.34q.22-3,.3-5.12T175.2,43q0-1.3,1.39-1.3h6.95a14.19,14.19,0,0,1,4.69.65,8.26,8.26,0,0,1,3,1.78,9,9,0,0,1,1.87,2.56q.69,1.43,1.3,3,2.08,5.38,3.69,9.29l2.82,6.86q1.22,3,2.13,5.12t1.69,4q.78,1.82,1.56,3.52t1.65,3.69q0-5.12,0-10.55T207.8,61q0-5.16-.09-9.94t0-8.6q0-.78,1.48-.78h4.77a14.87,14.87,0,0,1,4.56.56,6,6,0,0,1,2.65,1.65,5.53,5.53,0,0,1,1.26,2.65,18.81,18.81,0,0,1,.3,3.56q0,2.17-.26,6.64t-.61,10q-.35,5.56-.78,11.5t-.82,11q-.39,5-.69,8.55t-.39,4.12a1.2,1.2,0,0,1-.48,1,1.8,1.8,0,0,1-1.08.35Z"/><path class="cls-1" d="M240.31,103.34q-4.86,0-6.95-1.91A7,7,0,0,1,231.28,96q0-1.74.26-5.95t.69-9.59q.43-5.38.87-11.37T234,57.76q.43-5.29.69-9.29t.26-5.47q0-1.3,1.39-1.3h30.56a1.82,1.82,0,0,1,1,.26,1,1,0,0,1,.43,1L267.92,48a7.48,7.48,0,0,1-1.43,4.21q-1.26,1.61-5.17,1.61h-12l-.87,12.24H260.8a1.82,1.82,0,0,1,1,.26,1,1,0,0,1,.43,1l-.35,5.12a7.49,7.49,0,0,1-1.43,4.21q-1.26,1.61-5.17,1.61h-7.55l-1,12.94h19.1a1.63,1.63,0,0,1,1,.3,1,1,0,0,1,.43.91l-.35,5.12a7.48,7.48,0,0,1-1.43,4.21q-1.26,1.61-5.17,1.61Z"/><path class="cls-1" d="M328.34,90.41q.87-4.6,1.56-8T331.12,76q.52-3,1-5.86t1-6.51q.56-3.6,1.3-8.25t1.78-11.16a3.41,3.41,0,0,1,.87-2.13,5.89,5.89,0,0,1,3-.48q1,0,2.86.13a15,15,0,0,1,3.82.78,9.11,9.11,0,0,1,3.34,2,4.93,4.93,0,0,1,1.43,3.78,27.11,27.11,0,0,1-.52,4.3q-.52,2.91-1.43,6.68t-2.08,8.2q-1.17,4.43-2.39,8.94t-2.47,8.77q-1.26,4.26-2.34,7.68t-2,5.77q-.87,2.35-1.21,3a2.69,2.69,0,0,1-1.48,1.3,5.54,5.54,0,0,1-1.91.35h-8.25a7.51,7.51,0,0,1-3.78-.87,7.85,7.85,0,0,1-2.52-2.26,11.27,11.27,0,0,1-1.56-3.13,16.48,16.48,0,0,1-.74-3.56l-4.34-39-1.17,8.59q-.65,4.78-1.39,9.72t-1.43,9.72q-.7,4.78-1.39,8.73T305.95,98a18.92,18.92,0,0,1-1,3.65,2.36,2.36,0,0,1-1.39,1.3,5.78,5.78,0,0,1-2,.35h-8.25a7.13,7.13,0,0,1-3.6-.83,7.25,7.25,0,0,1-2.39-2.21,12.84,12.84,0,0,1-1.56-3.17q-.61-1.78-1-3.6-3.56-14.15-5.77-23.27t-3.52-14.63q-1.3-5.51-1.78-8.07a22.9,22.9,0,0,1-.48-3.69A1.9,1.9,0,0,1,274,42a10.82,10.82,0,0,1,3.86-.43A30.3,30.3,0,0,1,284,42a11,11,0,0,1,4,1.61,7,7,0,0,1,2.39,2.86,13.58,13.58,0,0,1,1.08,4.3,8,8,0,0,0,.09,1q.08.65.22,2.13t.43,4q.3,2.56.78,6.82t1.22,10.55q.74,6.3,1.78,15.06,1-5.3,1.52-8.55t1-5.73q.43-2.47.78-4.78t.83-5.73q.48-3.43,1.13-8.64L303,43.44a1.28,1.28,0,0,1,.74-1,5.54,5.54,0,0,1,1.61-.52,15.18,15.18,0,0,1,2.13-.22q1.17,0,2.21,0a38,38,0,0,1,5.9.39,11.45,11.45,0,0,1,4,1.35A7.26,7.26,0,0,1,322.18,46a15.24,15.24,0,0,1,1.56,4q.26,1.13.61,3.08t.83,6.21q.48,4.25,1.21,11.68T328.34,90.41Z"/><path class="cls-1" d="M365.94,103.34q-4.86,0-6.95-1.91A7,7,0,0,1,356.91,96q0-1.74.26-5.95t.69-9.59q.43-5.38.87-11.37t.87-11.29q.43-5.29.69-9.29t.26-5.47q0-1.3,1.39-1.3H392.5a1.82,1.82,0,0,1,1,.26,1,1,0,0,1,.43,1L393.55,48a7.49,7.49,0,0,1-1.43,4.21q-1.26,1.61-5.17,1.61H375L374.1,66.1h12.33a1.83,1.83,0,0,1,1,.26,1,1,0,0,1,.43,1l-.35,5.12A7.49,7.49,0,0,1,386,76.65q-1.26,1.61-5.17,1.61h-7.55l-1,12.94h19.1a1.63,1.63,0,0,1,1,.3,1,1,0,0,1,.43.91l-.35,5.12a7.47,7.47,0,0,1-1.43,4.21q-1.26,1.61-5.17,1.61Z"/><path class="cls-1" d="M417.51,104.21a44.73,44.73,0,0,1-8.42-.65,15.11,15.11,0,0,1-5.25-1.91,6.56,6.56,0,0,1-2.69-3.17A12.47,12.47,0,0,1,400.4,94q0-.78.09-2.21t.26-4q.17-2.6.48-6.73t.82-10.37q.61-7.73,1-12.24t.52-7q.17-2.47.22-3.47t0-1.69q0-1.39,0-2.26a6.69,6.69,0,0,1,.17-1.35,1.2,1.2,0,0,1,.43-.69,1.57,1.57,0,0,1,.91-.22q5.12-.35,8.73-.52t6.29-.17a51.39,51.39,0,0,1,11.33,1.08,22.81,22.81,0,0,1,7.68,3.08,12.24,12.24,0,0,1,4.34,4.95,15.52,15.52,0,0,1,1.39,6.68,22.34,22.34,0,0,1-.43,4.3,15.54,15.54,0,0,1-1.48,4.21,11.71,11.71,0,0,1-2.82,3.52A11,11,0,0,1,435.91,71q5,1.56,7.12,5.17a16.79,16.79,0,0,1,2.08,8.55,21.45,21.45,0,0,1-1.3,7.51,14.46,14.46,0,0,1-4.51,6.16,23.86,23.86,0,0,1-8.51,4.21A47.74,47.74,0,0,1,417.51,104.21Zm4.95-26.91q-1,0-2.34.13t-2.87.39l-1,14.15a19.48,19.48,0,0,0,5.64,1,10.23,10.23,0,0,0,4.34-.78,6.94,6.94,0,0,0,2.56-2,6.34,6.34,0,0,0,1.21-2.6,12.85,12.85,0,0,0,.3-2.65,8.39,8.39,0,0,0-1.78-5.43Q426.79,77.3,422.46,77.3Zm-3.65-23.87q-.17,2.26-.3,5.3t-.39,6.6a20.62,20.62,0,0,0,4.95.69,11.74,11.74,0,0,0,4.17-.61,6.71,6.71,0,0,0,2.47-1.56,4.82,4.82,0,0,0,1.21-2.08,8.36,8.36,0,0,0,.3-2.17,6.67,6.67,0,0,0-1.78-4.64q-1.78-2-6.12-2a19.37,19.37,0,0,0-2.13.13Q420,53.25,418.81,53.42Z"/><circle class="cls-2" cx="72.08" cy="89.65" r="14.78"/><circle class="cls-2" cx="72.08" cy="89.65" r="14.78"/><path class="cls-3" d="M69.26,70.06l-17-46.47a9.33,9.33,0,0,0-12-5.56h0A9.33,9.33,0,0,0,34.71,30L53.77,82.08A19.82,19.82,0,0,1,69.26,70.06Z"/><path class="cls-4" d="M90.65,82.78,110,29.64a9.08,9.08,0,0,0-5-11.49h0a9.08,9.08,0,0,0-12,5.2L75.39,70.13A19.81,19.81,0,0,1,90.65,82.78Z"/></svg>