<svg xmlns="http://www.w3.org/2000/svg" width="240" height="188" viewBox="0 0 240 188"><title>Group 4</title><g fill="none" fill-rule="evenodd"><circle fill="#9FF9B3" opacity=".3" cx="120.519" cy="93.506" r="93.506"/><path d="M0 139.22h240" stroke="#CDD1D4" stroke-width="2" fill="#FFF" fill-rule="nonzero"/><g fill-rule="nonzero"><path d="M196.472 77.89l-149.126-.268c-.67 0-1.208.538-1.208 1.21l-.134 54.78c0 .672.536 1.21 1.208 1.21l149.126.27c.67 0 1.208-.54 1.208-1.212l.134-54.778c0-.673-.537-1.21-1.208-1.21z" stroke="#CDD1D4" stroke-width="2" fill="#FFF" stroke-linecap="round" stroke-linejoin="round" stroke-dasharray="5,5"/><path d="M189.626 46.263c-.134-.54-.537-.942-1.074-.942l-133.018-.134c-.537 0-1.074.404-1.208.942l-8.188 31.36c-.134.403 0 .672.268 1.076.27.27.537.404.94.404l149.126.27c.403 0 .67-.136.94-.405.268-.27.268-.673.268-1.076l-8.054-31.494z" stroke="#CDD1D4" stroke-width="2" fill="#FFF" stroke-linecap="round" stroke-linejoin="round" stroke-dasharray="5,5"/><path stroke="#CDD1D4" stroke-width="2" fill="#FFF" stroke-linecap="round" stroke-linejoin="round" stroke-dasharray="5.000009061822789,5.000009061822789" d="M45.057 143.706l.023-12.08 153.565.293-.023 12.08z"/><path stroke="#B1B6BB" stroke-width="2" fill="#FFF" d="M65.073 116.4l.046-23.893 16.015.03-.046 23.893z"/><path fill="#B1B6BB" d="M61.697 120.032l.008-4.16 22.746.042-.007 4.16z"/><path d="M73.117 91.888c-.67 0-1.208.54-1.208 1.212v22.476c0 .673.536 1.21 1.207 1.21.67 0 1.208-.537 1.208-1.21V93.1c0-.673-.537-1.212-1.208-1.212z" fill="#B1B6BB"/><path d="M80.5 103.194H65.466c-.67 0-1.208.538-1.208 1.21 0 .674.537 1.212 1.208 1.212H80.5c.67 0 1.208-.538 1.208-1.21 0-.674-.537-1.212-1.208-1.212z" fill="#B1B6BB"/><path stroke="#CDD1D4" stroke-width="2" fill="#FFF" stroke-linecap="round" stroke-linejoin="round" stroke-dasharray="5,5" d="M99.963 83.005l-.135 60.834 44.027.134.134-60.97-22.014-14.938z"/><g><path stroke="#B1B6BB" stroke-width="2" fill="#FFF" d="M113.896 116.55l.045-23.892 16.017.03-.045 23.892z"/><path fill="#FFF" d="M125.466 110.596V96.6h-6.04"/><path fill="#B1B6BB" d="M110.52 120.048l.008-4.16 22.746.042-.008 4.16z"/><path d="M121.976 92.023c-.67 0-1.208.538-1.208 1.21v22.477c0 .673.537 1.212 1.208 1.212.67 0 1.208-.54 1.208-1.212V93.234c-.134-.673-.67-1.21-1.208-1.21z" fill="#B1B6BB"/><path d="M129.358 103.328h-15.033c-.67 0-1.208.54-1.208 1.212 0 .673.537 1.21 1.208 1.21h15.033c.672 0 1.208-.537 1.208-1.21 0-.673-.536-1.212-1.208-1.212z" fill="#B1B6BB"/></g><g><path stroke="#B1B6BB" stroke-width="2" fill="#FFF" d="M162.72 116.566l.045-23.892 16.016.03-.044 23.892z"/><path fill="#B1B6BB" d="M159.344 120.198l.008-4.16 22.746.043-.008 4.162z"/><path d="M170.7 92.157c-.67 0-1.208.54-1.208 1.212v22.475c0 .673.537 1.21 1.208 1.21.67 0 1.208-.537 1.208-1.21V93.37c0-.674-.537-1.213-1.208-1.213z" fill="#B1B6BB"/><path d="M178.083 103.328H163.05c-.672 0-1.21.54-1.21 1.212 0 .673.538 1.21 1.21 1.21h15.033c.67 0 1.208-.537 1.208-1.21 0-.673-.536-1.212-1.207-1.212z" fill="#B1B6BB"/></g></g><path fill="#B1B6BB" fill-rule="nonzero" d="M19.84 117.587h2.947v25.654H19.84z"/><path d="M9.85 104.964c-2.69 7.33-.898 15.066 5.123 21.58 3.46 3.802 9.223 3.802 12.682 0 6.02-6.514 7.815-14.25 5.124-21.58-4.1-10.995-18.832-10.995-22.93 0z" fill="#CDD1D4" fill-rule="nonzero"/><path d="M32.78 104.964c-2.05-5.566-6.79-8.28-11.402-8.28v32.576c2.306 0 4.612-.95 6.405-2.85 5.893-6.38 7.687-14.117 4.996-21.446z" fill="#E8E9EA" fill-rule="nonzero"/><path d="M9.85 104.964c-2.69 7.33-.898 15.066 5.123 21.58 3.46 3.802 9.223 3.802 12.682 0 6.02-6.514 7.815-14.25 5.124-21.58-4.1-10.995-18.832-10.995-22.93 0z" stroke="#B1B6BB" stroke-width="2"/><g><path fill="#B1B6BB" fill-rule="nonzero" d="M218.25 117.587h2.947v25.654h-2.946z"/><path d="M208.26 104.964c-2.69 7.33-.897 15.066 5.124 21.58 3.458 3.802 9.223 3.802 12.682 0 6.02-6.514 7.814-14.25 5.124-21.58-4.1-10.995-18.83-10.995-22.93 0z" fill="#CDD1D4" fill-rule="nonzero"/><path d="M231.19 104.964c-2.05-5.566-6.79-8.28-11.4-8.28v32.576c2.305 0 4.61-.95 6.404-2.85 5.893-6.38 7.686-14.117 4.996-21.446z" fill="#E8E9EA" fill-rule="nonzero"/><path d="M208.26 104.964c-2.69 7.33-.897 15.066 5.124 21.58 3.458 3.802 9.223 3.802 12.682 0 6.02-6.514 7.814-14.25 5.124-21.58-4.1-10.995-18.83-10.995-22.93 0z" stroke="#B1B6BB" stroke-width="2"/></g></g></svg>